{"asset":{"version":"2.0","generator":"Blockbench 4.6.4 glTF exporter"},"scenes":[{"nodes":[6],"name":"blockbench_export"}],"scene":0,"nodes":[{"rotation":[0,-0.7071067811865475,0,0.7071067811865476],"name":"legs","mesh":0},{"name":"main","mesh":1},{"name":"tip","mesh":2},{"name":"thruster","mesh":3},{"name":"window","mesh":4},{"rotation":[0.7071067811865475,0,0,0.7071067811865476],"name":"fire","mesh":5},{"children":[0,1,2,3,4,5]}],"bufferViews":[{"buffer":0,"byteOffset":0,"byteLength":1872,"target":34962,"byteStride":12},{"buffer":0,"byteOffset":1872,"byteLength":1872,"target":34962,"byteStride":12},{"buffer":0,"byteOffset":3744,"byteLength":1248,"target":34962,"byteStride":8},{"buffer":0,"byteOffset":4992,"byteLength":312,"target":34963},{"buffer":0,"byteOffset":5304,"byteLength":864,"target":34962,"byteStride":12},{"buffer":0,"byteOffset":6168,"byteLength":864,"target":34962,"byteStride":12},{"buffer":0,"byteOffset":7032,"byteLength":576,"target":34962,"byteStride":8},{"buffer":0,"byteOffset":7608,"byteLength":144,"target":34963},{"buffer":0,"byteOffset":7752,"byteLength":288,"target":34962,"byteStride":12},{"buffer":0,"byteOffset":8040,"byteLength":288,"target":34962,"byteStride":12},{"buffer":0,"byteOffset":8328,"byteLength":192,"target":34962,"byteStride":8},{"buffer":0,"byteOffset":8520,"byteLength":48,"target":34963},{"buffer":0,"byteOffset":8568,"byteLength":360,"target":34962,"byteStride":12},{"buffer":0,"byteOffset":8928,"byteLength":360,"target":34962,"byteStride":12},{"buffer":0,"byteOffset":9288,"byteLength":240,"target":34962,"byteStride":8},{"buffer":0,"byteOffset":9528,"byteLength":60,"target":34963},{"buffer":0,"byteOffset":9588,"byteLength":72,"target":34962,"byteStride":12},{"buffer":0,"byteOffset":9660,"byteLength":72,"target":34962,"byteStride":12},{"buffer":0,"byteOffset":9732,"byteLength":48,"target":34962,"byteStride":8},{"buffer":0,"byteOffset":9780,"byteLength":12,"target":34963},{"buffer":0,"byteOffset":9792,"byteLength":72,"target":34962,"byteStride":12},{"buffer":0,"byteOffset":9864,"byteLength":72,"target":34962,"byteStride":12},{"buffer":0,"byteOffset":9936,"byteLength":48,"target":34962,"byteStride":8},{"buffer":0,"byteOffset":9984,"byteLength":12,"target":34963}],"buffers":[{"byteLength":9996,"uri":"data:application/octet-stream;base64,"}],"accessors":[{"bufferView":0,"componentType":5126,"count":156,"max":[0.46875,0.75,0.46875],"min":[-0.46875,0,-0.46875],"type":"VEC3"},{"bufferView":1,"componentType":5126,"count":156,"max":[0.9922778606414795,0.3511234521865845,0.9922778606414795],"min":[-0.9922778606414795,-1,-0.9922778606414795],"type":"VEC3"},{"bufferView":2,"componentType":5126,"count":156,"max":[0.71875,0.9921875],"min":[0.140625,0.1875],"type":"VEC2"},{"bufferView":3,"componentType":5123,"count":156,"max":[155],"min":[0],"type":"SCALAR"},{"bufferView":4,"componentType":5126,"count":72,"max":[0.28125,1.40625,0.28125],"min":[-0.28125,0.28125,-0.28125],"type":"VEC3"},{"bufferView":5,"componentType":5126,"count":72,"max":[1,0,1],"min":[-1,-1,-1],"type":"VEC3"},{"bufferView":6,"componentType":5126,"count":72,"max":[0.390625,1],"min":[0.0042500002309679985,0.4375],"type":"VEC2"},{"bufferView":7,"componentType":5123,"count":72,"max":[71],"min":[0],"type":"SCALAR"},{"bufferView":8,"componentType":5126,"count":24,"max":[0.28125,2.0625,0.28125],"min":[-0.28125,1.40625,-0.28125],"type":"VEC3"},{"bufferView":9,"componentType":5126,"count":24,"max":[0.9191450476646423,0.39391931891441345,0.9191450476646423],"min":[-0.9191450476646423,0.39391931891441345,-0.9191450476646423],"type":"VEC3"},{"bufferView":10,"componentType":5126,"count":24,"max":[0.5625,1],"min":[0.00501028448343277,0.2878941297531128],"type":"VEC2"},{"bufferView":11,"componentType":5123,"count":24,"max":[23],"min":[0],"type":"SCALAR"},{"bufferView":12,"componentType":5126,"count":30,"max":[0.22041946649551392,0.75,0.1875],"min":[-0.22041946649551392,0.1875,-0.23176275193691254],"type":"VEC3"},{"bufferView":13,"componentType":5126,"count":30,"max":[0.9022514224052429,0.3162277638912201,0.9486833214759827],"min":[-0.9022514224052429,-1,-0.7675009369850159],"type":"VEC3"},{"bufferView":14,"componentType":5126,"count":30,"max":[0.703125,1],"min":[0.0625,0.28540682792663574],"type":"VEC2"},{"bufferView":15,"componentType":5123,"count":30,"max":[29],"min":[0],"type":"SCALAR"},{"bufferView":16,"componentType":5126,"count":6,"max":[0.28125,1.3125,0.3046875],"min":[-0.28125,0.75,0.3046875],"type":"VEC3"},{"bufferView":17,"componentType":5126,"count":6,"max":[0,-1.973729836261267e-16,1],"min":[0,-1.973729836261267e-16,1],"type":"VEC3"},{"bufferView":18,"componentType":5126,"count":6,"max":[0.265625,0.859375],"min":[0.125,0.71875],"type":"VEC2"},{"bufferView":19,"componentType":5123,"count":6,"max":[5],"min":[0],"type":"SCALAR"},{"bufferView":20,"componentType":5126,"count":6,"max":[0.25,0,0.6875],"min":[-0.25,0,-0.3125],"type":"VEC3"},{"bufferView":21,"componentType":5126,"count":6,"max":[0,1,0],"min":[0,1,0],"type":"VEC3"},{"bufferView":22,"componentType":5126,"count":6,"max":[0.625,1],"min":[0.5,0.75],"type":"VEC2"},{"bufferView":23,"componentType":5123,"count":6,"max":[5],"min":[0],"type":"SCALAR"}],"materials":[{"pbrMetallicRoughness":{"metallicFactor":0,"roughnessFactor":1,"baseColorTexture":{"index":0}},"alphaMode":"MASK","alphaCutoff":0.05,"doubleSided":true},{"pbrMetallicRoughness":{"metallicFactor":0,"roughnessFactor":1,"baseColorTexture":{"index":1}},"alphaMode":"MASK","alphaCutoff":0.05,"doubleSided":true}],"textures":[{"sampler":0,"source":0,"name":"texture.png"},{"sampler":1,"source":1,"name":"Rocket.png"}],"samplers":[{"magFilter":9728,"minFilter":9728,"wrapS":33071,"wrapT":33071},{"magFilter":9728,"minFilter":9728,"wrapS":33071,"wrapT":33071}],"images":[{"mimeType":"image/png","uri":"data:image/png;base64,"},{"mimeType":"image/png","uri":"data:image/png;base64,"}],"meshes":[{"primitives":[{"mode":4,"attributes":{"POSITION":0,"NORMAL":1,"TEXCOORD_0":2},"indices":3,"material":0}]},{"primitives":[{"mode":4,"attributes":{"POSITION":4,"NORMAL":5,"TEXCOORD_0":6},"indices":7,"material":0}]},{"primitives":[{"mode":4,"attributes":{"POSITION":8,"NORMAL":9,"TEXCOORD_0":10},"indices":11,"material":0}]},{"primitives":[{"mode":4,"attributes":{"POSITION":12,"NORMAL":13,"TEXCOORD_0":14},"indices":15,"material":0}]},{"primitives":[{"mode":4,"attributes":{"POSITION":16,"NORMAL":17,"TEXCOORD_0":18},"indices":19,"material":0}]},{"primitives":[{"mode":4,"attributes":{"POSITION":20,"NORMAL":21,"TEXCOORD_0":22},"indices":23,"material":1}]}]}